# xmcd
#
# Track frame offsets: 
#        150
#        28120
#        46206
#        60326
#        87590
#        110264
#        133605
#        151612
#        168255
#        204005
#        228029
#        242164
#        262056
#        282549
#        308073
#        327842
#
# Disc length: 4580 seconds
#
# Revision: 0
# Processed by: cddbd v1.5.2PL0 Copyright (c) Steve Scherf et al.
# Submitted via: ExactAudioCopy v0.99pb5
#
DISCID=cc11e210
DTITLE=Various Artist - Blues Mafia - Best Of Blues [CD1)
DYEAR=2010
DGENRE=Blues
TTITLE0=Ganster Blues
TTITLE1=I Who Heve Nothing
TTITLE2=Real Thing
TTITLE3=Love That Burns
TTITLE4=Dirty Pool
TTITLE5=Can't Find No Mercy
TTITLE6=Sorry Seems to De The Hardest Word
TTITLE7=Bensonhurst blues
TTITLE8=The Mists Of Time
TTITLE9=Cold, Cold Feeling
TTITLE10=Here In The Dark
TTITLE11=Too Many Tears (featuring Derek Trucks and Susan Tedeschi)
TTITLE12=Too Proud
TTITLE13=New man In Town
TTITLE14=2000 Blues
TTITLE15=Night Calls
EXTD=
EXTT0=
EXTT1=
EXTT2=
EXTT3=
EXTT4=
EXTT5=
EXTT6=
EXTT7=
EXTT8=
EXTT9=
EXTT10=
EXTT11=
EXTT12=
EXTT13=
EXTT14=
EXTT15=
PLAYORDER=
